<svg xmlns="http://www.w3.org/2000/svg" aria-hidden="true" style="position:absolute;width:0;height:0;overflow:hidden">
  <defs>
    <symbol id="icon-person-sign" viewBox="0 0 32 32">
      <path fill="#4d5ae5" d="M16 16a5.333 5.333 0 1 0 0-10.666A5.333 5.333 0 1 0 16 16zm0 2.667c-3.561 0-10.667 1.787-10.667 5.333v1.333c0 .732.599 1.333 1.333 1.333h18.667c.732 0 1.333-.601 1.333-1.333V24c0-3.547-7.108-5.333-10.667-5.333z" style="fill:var(--color1, #4d5ae5)"/>
    </symbol>
    <symbol id="icon-phone-sign" viewBox="0 0 24 32">
      <path d="m19.635 18.487-2.451-.28a1.927 1.927 0 0 0-1.583.551l-1.775 1.775c-2.752-1.42-4.94-3.607-6.322-6.278l-.038-.081 1.787-1.785a1.914 1.914 0 0 0 .548-1.591l.001.009-.28-2.432a1.933 1.933 0 0 0-1.918-1.708H5.933c-1.091 0-1.997.907-1.929 1.997.511 8.24 7.101 14.821 15.332 15.333 1.091.067 1.997-.84 1.997-1.931v-1.68c0-.981-.739-1.789-1.69-1.899l-.009-.001z"/>
    </symbol>
    <symbol id="icon-email-sign" viewBox="0 0 24 32">
      <path d="M20 8H4c-1.1 0-1.989.9-1.989 2L2 22c0 1.1.9 2 2 2h16c1.1 0 2-.9 2-2V10c0-1.1-.9-2-2-2zm-.4 4.251-7.069 4.419c-.151.094-.334.15-.531.15s-.38-.056-.535-.153l.004.002L4.4 12.25a.85.85 0 1 1 .902-1.437L11.999 15l6.7-4.191a.849.849 0 1 1 .903 1.437l-.004.002z"/>
    </symbol>
    <symbol id="icon-close-sign" viewBox="0 0 32 32">
      <path d="M32 3.224 28.776 0 16 12.776 3.224 0 0 3.224 12.776 16 0 28.776 3.224 32 16 19.224 28.776 32 32 28.776 19.224 16 32 3.224z"/>
    </symbol>
    <symbol id="icon-admit-sign" viewBox="0 0 40 32">
<path d="M33.782 1.020c0.691-0.662 1.611-1.027 2.565-1.020s1.869 0.387 2.55 1.059c0.681 0.672 1.076 1.584 1.101 2.543s-0.321 1.891-0.966 2.598l-19.578 24.617c-0.337 0.365-0.743 0.657-1.195 0.86s-0.939 0.312-1.434 0.322c-0.495 0.009-0.986-0.082-1.445-0.268s-0.876-0.463-1.226-0.815l-12.984-13.054c-0.362-0.339-0.652-0.747-0.853-1.201s-0.309-0.944-0.318-1.441 0.082-0.99 0.267-1.451c0.185-0.461 0.461-0.879 0.81-1.231s0.766-0.628 1.224-0.814 0.949-0.277 1.443-0.269c0.494 0.009 0.981 0.118 1.433 0.32s0.858 0.494 1.195 0.857l10.275 10.325 17.042-21.83c0.031-0.038 0.063-0.074 0.098-0.109h-0.005z"></path>
</symbol>
<symbol id="icon-Frame-3" viewBox="0 0 32 32">
<path fill="#fff" style="fill: var(--color1, #fff)" d="M32 2.667l-32 15 10.227 3.156 15.773-12.323-11.998 13.488 0.010 0.003-0.012-0.003v7.345l5.735-5.576 7.265 2.242 5-23.333z"></path>
</symbol>
  </defs>
</svg>
